<mxfile host="app.diagrams.net" agent="Mozilla/5.0 (Windows NT 10.0; Win64; x64) AppleWebKit/537.36 (KHTML, like Gecko) Chrome/130.0.0.0 Safari/537.36" version="24.8.3">
  <diagram name="Página-1" id="RXoNkArPKk_zb36zFS0y">
    <mxGraphModel dx="115" dy="124" grid="1" gridSize="10" guides="1" tooltips="1" connect="1" arrows="1" fold="1" page="1" pageScale="1" pageWidth="827" pageHeight="1169" math="0" shadow="0">
      <root>
        <mxCell id="0" />
        <mxCell id="1" parent="0" />
        <mxCell id="SDzj_AFGgTBSSheibPa5-4" value="Pessoas" style="swimlane;fontStyle=1;align=center;verticalAlign=top;childLayout=stackLayout;horizontal=1;startSize=26;horizontalStack=0;resizeParent=1;resizeParentMax=0;resizeLast=0;collapsible=1;marginBottom=0;whiteSpace=wrap;html=1;" vertex="1" parent="1">
          <mxGeometry x="580" y="610" width="160" height="88" as="geometry" />
        </mxCell>
        <mxCell id="SDzj_AFGgTBSSheibPa5-5" value="&lt;div&gt;- id : int&lt;/div&gt;&lt;div&gt;- nome : string&lt;/div&gt;&lt;div&gt;- cpf : string&lt;/div&gt;&lt;div&gt;&lt;br&gt;&lt;/div&gt;" style="text;strokeColor=none;fillColor=none;align=left;verticalAlign=top;spacingLeft=4;spacingRight=4;overflow=hidden;rotatable=0;points=[[0,0.5],[1,0.5]];portConstraint=eastwest;whiteSpace=wrap;html=1;" vertex="1" parent="SDzj_AFGgTBSSheibPa5-4">
          <mxGeometry y="26" width="160" height="54" as="geometry" />
        </mxCell>
        <mxCell id="SDzj_AFGgTBSSheibPa5-6" value="" style="line;strokeWidth=1;fillColor=none;align=left;verticalAlign=middle;spacingTop=-1;spacingLeft=3;spacingRight=3;rotatable=0;labelPosition=right;points=[];portConstraint=eastwest;strokeColor=inherit;" vertex="1" parent="SDzj_AFGgTBSSheibPa5-4">
          <mxGeometry y="80" width="160" height="8" as="geometry" />
        </mxCell>
        <mxCell id="SDzj_AFGgTBSSheibPa5-12" value="Paciente" style="swimlane;fontStyle=1;align=center;verticalAlign=top;childLayout=stackLayout;horizontal=1;startSize=26;horizontalStack=0;resizeParent=1;resizeParentMax=0;resizeLast=0;collapsible=1;marginBottom=0;whiteSpace=wrap;html=1;" vertex="1" parent="1">
          <mxGeometry x="440" y="450" width="160" height="86" as="geometry" />
        </mxCell>
        <mxCell id="SDzj_AFGgTBSSheibPa5-13" value="- doença : string&lt;div&gt;&lt;br&gt;&lt;/div&gt;" style="text;strokeColor=none;fillColor=none;align=left;verticalAlign=top;spacingLeft=4;spacingRight=4;overflow=hidden;rotatable=0;points=[[0,0.5],[1,0.5]];portConstraint=eastwest;whiteSpace=wrap;html=1;" vertex="1" parent="SDzj_AFGgTBSSheibPa5-12">
          <mxGeometry y="26" width="160" height="26" as="geometry" />
        </mxCell>
        <mxCell id="SDzj_AFGgTBSSheibPa5-14" value="" style="line;strokeWidth=1;fillColor=none;align=left;verticalAlign=middle;spacingTop=-1;spacingLeft=3;spacingRight=3;rotatable=0;labelPosition=right;points=[];portConstraint=eastwest;strokeColor=inherit;" vertex="1" parent="SDzj_AFGgTBSSheibPa5-12">
          <mxGeometry y="52" width="160" height="8" as="geometry" />
        </mxCell>
        <mxCell id="SDzj_AFGgTBSSheibPa5-15" value="+ method(type): type" style="text;strokeColor=none;fillColor=none;align=left;verticalAlign=top;spacingLeft=4;spacingRight=4;overflow=hidden;rotatable=0;points=[[0,0.5],[1,0.5]];portConstraint=eastwest;whiteSpace=wrap;html=1;" vertex="1" parent="SDzj_AFGgTBSSheibPa5-12">
          <mxGeometry y="60" width="160" height="26" as="geometry" />
        </mxCell>
        <mxCell id="SDzj_AFGgTBSSheibPa5-56" style="edgeStyle=orthogonalEdgeStyle;rounded=0;orthogonalLoop=1;jettySize=auto;html=1;exitX=1;exitY=0.5;exitDx=0;exitDy=0;entryX=1;entryY=0.654;entryDx=0;entryDy=0;entryPerimeter=0;" edge="1" parent="SDzj_AFGgTBSSheibPa5-12" source="SDzj_AFGgTBSSheibPa5-12" target="SDzj_AFGgTBSSheibPa5-13">
          <mxGeometry relative="1" as="geometry" />
        </mxCell>
        <mxCell id="SDzj_AFGgTBSSheibPa5-16" value="Médicos" style="swimlane;fontStyle=1;align=center;verticalAlign=top;childLayout=stackLayout;horizontal=1;startSize=26;horizontalStack=0;resizeParent=1;resizeParentMax=0;resizeLast=0;collapsible=1;marginBottom=0;whiteSpace=wrap;html=1;" vertex="1" parent="1">
          <mxGeometry x="667" y="450" width="160" height="94" as="geometry" />
        </mxCell>
        <mxCell id="SDzj_AFGgTBSSheibPa5-17" value="&lt;div&gt;- crm : string&lt;/div&gt;&lt;div&gt;- formacao : string&lt;/div&gt;" style="text;strokeColor=none;fillColor=none;align=left;verticalAlign=top;spacingLeft=4;spacingRight=4;overflow=hidden;rotatable=0;points=[[0,0.5],[1,0.5]];portConstraint=eastwest;whiteSpace=wrap;html=1;" vertex="1" parent="SDzj_AFGgTBSSheibPa5-16">
          <mxGeometry y="26" width="160" height="34" as="geometry" />
        </mxCell>
        <mxCell id="SDzj_AFGgTBSSheibPa5-18" value="" style="line;strokeWidth=1;fillColor=none;align=left;verticalAlign=middle;spacingTop=-1;spacingLeft=3;spacingRight=3;rotatable=0;labelPosition=right;points=[];portConstraint=eastwest;strokeColor=inherit;" vertex="1" parent="SDzj_AFGgTBSSheibPa5-16">
          <mxGeometry y="60" width="160" height="8" as="geometry" />
        </mxCell>
        <mxCell id="SDzj_AFGgTBSSheibPa5-19" value="+ method(type): type" style="text;strokeColor=none;fillColor=none;align=left;verticalAlign=top;spacingLeft=4;spacingRight=4;overflow=hidden;rotatable=0;points=[[0,0.5],[1,0.5]];portConstraint=eastwest;whiteSpace=wrap;html=1;" vertex="1" parent="SDzj_AFGgTBSSheibPa5-16">
          <mxGeometry y="68" width="160" height="26" as="geometry" />
        </mxCell>
        <mxCell id="SDzj_AFGgTBSSheibPa5-20" value="Receituários" style="swimlane;fontStyle=1;align=center;verticalAlign=top;childLayout=stackLayout;horizontal=1;startSize=26;horizontalStack=0;resizeParent=1;resizeParentMax=0;resizeLast=0;collapsible=1;marginBottom=0;whiteSpace=wrap;html=1;" vertex="1" parent="1">
          <mxGeometry x="560" y="310" width="160" height="68" as="geometry" />
        </mxCell>
        <mxCell id="SDzj_AFGgTBSSheibPa5-21" value="&lt;div&gt;- id : int&lt;/div&gt;- descricao : string" style="text;strokeColor=none;fillColor=none;align=left;verticalAlign=top;spacingLeft=4;spacingRight=4;overflow=hidden;rotatable=0;points=[[0,0.5],[1,0.5]];portConstraint=eastwest;whiteSpace=wrap;html=1;" vertex="1" parent="SDzj_AFGgTBSSheibPa5-20">
          <mxGeometry y="26" width="160" height="34" as="geometry" />
        </mxCell>
        <mxCell id="SDzj_AFGgTBSSheibPa5-22" value="" style="line;strokeWidth=1;fillColor=none;align=left;verticalAlign=middle;spacingTop=-1;spacingLeft=3;spacingRight=3;rotatable=0;labelPosition=right;points=[];portConstraint=eastwest;strokeColor=inherit;" vertex="1" parent="SDzj_AFGgTBSSheibPa5-20">
          <mxGeometry y="60" width="160" height="8" as="geometry" />
        </mxCell>
        <mxCell id="SDzj_AFGgTBSSheibPa5-24" value="Medicamentos" style="swimlane;fontStyle=1;align=center;verticalAlign=top;childLayout=stackLayout;horizontal=1;startSize=26;horizontalStack=0;resizeParent=1;resizeParentMax=0;resizeLast=0;collapsible=1;marginBottom=0;whiteSpace=wrap;html=1;" vertex="1" parent="1">
          <mxGeometry x="560" y="100" width="160" height="78" as="geometry" />
        </mxCell>
        <mxCell id="SDzj_AFGgTBSSheibPa5-25" value="- id : int&lt;div&gt;-descricao : string&lt;/div&gt;" style="text;strokeColor=none;fillColor=none;align=left;verticalAlign=top;spacingLeft=4;spacingRight=4;overflow=hidden;rotatable=0;points=[[0,0.5],[1,0.5]];portConstraint=eastwest;whiteSpace=wrap;html=1;" vertex="1" parent="SDzj_AFGgTBSSheibPa5-24">
          <mxGeometry y="26" width="160" height="44" as="geometry" />
        </mxCell>
        <mxCell id="SDzj_AFGgTBSSheibPa5-26" value="" style="line;strokeWidth=1;fillColor=none;align=left;verticalAlign=middle;spacingTop=-1;spacingLeft=3;spacingRight=3;rotatable=0;labelPosition=right;points=[];portConstraint=eastwest;strokeColor=inherit;" vertex="1" parent="SDzj_AFGgTBSSheibPa5-24">
          <mxGeometry y="70" width="160" height="8" as="geometry" />
        </mxCell>
        <mxCell id="SDzj_AFGgTBSSheibPa5-35" value="" style="endArrow=block;endSize=16;endFill=0;html=1;rounded=0;exitX=0.5;exitY=0;exitDx=0;exitDy=0;entryX=0.438;entryY=0.923;entryDx=0;entryDy=0;entryPerimeter=0;" edge="1" parent="1" source="SDzj_AFGgTBSSheibPa5-4" target="SDzj_AFGgTBSSheibPa5-19">
          <mxGeometry width="160" relative="1" as="geometry">
            <mxPoint x="690" y="400" as="sourcePoint" />
            <mxPoint x="850" y="400" as="targetPoint" />
          </mxGeometry>
        </mxCell>
        <mxCell id="SDzj_AFGgTBSSheibPa5-36" value="" style="endArrow=block;endSize=16;endFill=0;html=1;rounded=0;exitX=0.5;exitY=0;exitDx=0;exitDy=0;entryX=0.481;entryY=1.038;entryDx=0;entryDy=0;entryPerimeter=0;" edge="1" parent="1" source="SDzj_AFGgTBSSheibPa5-4" target="SDzj_AFGgTBSSheibPa5-15">
          <mxGeometry width="160" relative="1" as="geometry">
            <mxPoint x="670" y="620" as="sourcePoint" />
            <mxPoint x="747" y="554" as="targetPoint" />
          </mxGeometry>
        </mxCell>
        <mxCell id="SDzj_AFGgTBSSheibPa5-42" value="" style="endArrow=open;endFill=1;endSize=12;html=1;rounded=0;exitX=0.438;exitY=0.035;exitDx=0;exitDy=0;exitPerimeter=0;entryX=0.75;entryY=1;entryDx=0;entryDy=0;" edge="1" parent="1" source="SDzj_AFGgTBSSheibPa5-16" target="SDzj_AFGgTBSSheibPa5-20">
          <mxGeometry width="160" relative="1" as="geometry">
            <mxPoint x="690" y="400" as="sourcePoint" />
            <mxPoint x="683" y="406" as="targetPoint" />
          </mxGeometry>
        </mxCell>
        <mxCell id="SDzj_AFGgTBSSheibPa5-43" value="1" style="edgeLabel;html=1;align=center;verticalAlign=middle;resizable=0;points=[];" vertex="1" connectable="0" parent="SDzj_AFGgTBSSheibPa5-42">
          <mxGeometry x="-0.6852" y="2" relative="1" as="geometry">
            <mxPoint x="1" as="offset" />
          </mxGeometry>
        </mxCell>
        <mxCell id="SDzj_AFGgTBSSheibPa5-44" value="&lt;div&gt;1...*&lt;/div&gt;" style="edgeLabel;html=1;align=center;verticalAlign=middle;resizable=0;points=[];" vertex="1" connectable="0" parent="SDzj_AFGgTBSSheibPa5-42">
          <mxGeometry x="0.5148" y="2" relative="1" as="geometry">
            <mxPoint x="1" as="offset" />
          </mxGeometry>
        </mxCell>
        <mxCell id="SDzj_AFGgTBSSheibPa5-49" value="" style="endArrow=open;endFill=1;endSize=12;html=1;rounded=0;exitX=0.5;exitY=1;exitDx=0;exitDy=0;entryX=0.5;entryY=0;entryDx=0;entryDy=0;" edge="1" parent="1" source="SDzj_AFGgTBSSheibPa5-24" target="SDzj_AFGgTBSSheibPa5-20">
          <mxGeometry width="160" relative="1" as="geometry">
            <mxPoint x="637.2800000000002" y="205.32600000000002" as="sourcePoint" />
            <mxPoint x="750" y="350" as="targetPoint" />
          </mxGeometry>
        </mxCell>
        <mxCell id="SDzj_AFGgTBSSheibPa5-50" value="1...*" style="edgeLabel;html=1;align=center;verticalAlign=middle;resizable=0;points=[];" vertex="1" connectable="0" parent="SDzj_AFGgTBSSheibPa5-49">
          <mxGeometry x="-0.9082" relative="1" as="geometry">
            <mxPoint as="offset" />
          </mxGeometry>
        </mxCell>
        <mxCell id="SDzj_AFGgTBSSheibPa5-51" value="0...*" style="edgeLabel;html=1;align=center;verticalAlign=middle;resizable=0;points=[];" vertex="1" connectable="0" parent="SDzj_AFGgTBSSheibPa5-49">
          <mxGeometry x="0.7729" relative="1" as="geometry">
            <mxPoint as="offset" />
          </mxGeometry>
        </mxCell>
        <mxCell id="SDzj_AFGgTBSSheibPa5-52" value="" style="endArrow=open;endFill=1;endSize=12;html=1;rounded=0;exitX=0.5;exitY=0;exitDx=0;exitDy=0;entryX=0.25;entryY=1;entryDx=0;entryDy=0;" edge="1" parent="1" source="SDzj_AFGgTBSSheibPa5-12" target="SDzj_AFGgTBSSheibPa5-20">
          <mxGeometry width="160" relative="1" as="geometry">
            <mxPoint x="624" y="463" as="sourcePoint" />
            <mxPoint x="620.6400000000001" y="404.98800000000006" as="targetPoint" />
          </mxGeometry>
        </mxCell>
        <mxCell id="SDzj_AFGgTBSSheibPa5-53" value="1" style="edgeLabel;html=1;align=center;verticalAlign=middle;resizable=0;points=[];" vertex="1" connectable="0" parent="SDzj_AFGgTBSSheibPa5-52">
          <mxGeometry x="-0.6852" y="2" relative="1" as="geometry">
            <mxPoint x="1" as="offset" />
          </mxGeometry>
        </mxCell>
        <mxCell id="SDzj_AFGgTBSSheibPa5-54" value="&lt;div&gt;1&lt;/div&gt;" style="edgeLabel;html=1;align=center;verticalAlign=middle;resizable=0;points=[];" vertex="1" connectable="0" parent="SDzj_AFGgTBSSheibPa5-52">
          <mxGeometry x="0.5148" y="2" relative="1" as="geometry">
            <mxPoint x="1" as="offset" />
          </mxGeometry>
        </mxCell>
        <mxCell id="SDzj_AFGgTBSSheibPa5-59" value="" style="endArrow=open;endFill=1;endSize=12;html=1;rounded=0;exitX=1.013;exitY=0.731;exitDx=0;exitDy=0;exitPerimeter=0;entryX=0;entryY=0.5;entryDx=0;entryDy=0;" edge="1" parent="1" source="SDzj_AFGgTBSSheibPa5-13" target="SDzj_AFGgTBSSheibPa5-17">
          <mxGeometry width="160" relative="1" as="geometry">
            <mxPoint x="610" y="500" as="sourcePoint" />
            <mxPoint x="660" y="495" as="targetPoint" />
            <Array as="points" />
          </mxGeometry>
        </mxCell>
        <mxCell id="SDzj_AFGgTBSSheibPa5-60" value="0..*" style="edgeLabel;html=1;align=center;verticalAlign=middle;resizable=0;points=[];" vertex="1" connectable="0" parent="SDzj_AFGgTBSSheibPa5-59">
          <mxGeometry x="-0.8195" relative="1" as="geometry">
            <mxPoint as="offset" />
          </mxGeometry>
        </mxCell>
        <mxCell id="SDzj_AFGgTBSSheibPa5-61" value="1" style="edgeLabel;html=1;align=center;verticalAlign=middle;resizable=0;points=[];" vertex="1" connectable="0" parent="SDzj_AFGgTBSSheibPa5-59">
          <mxGeometry x="0.7058" relative="1" as="geometry">
            <mxPoint as="offset" />
          </mxGeometry>
        </mxCell>
      </root>
    </mxGraphModel>
  </diagram>
</mxfile>
